# xmcd CD database file
# Copyright (C) 1996 Ti Kan
#
# Track frame offsets:
#	183
#	11670
#	31995
#	49440
#	65330
#	84118
#	106060
#	118368
#	131915
#	146785
#	168603
#
# Disc length: 2412 seconds
#
# Revision: 1
# Processed by: cddbd v1.4b41PL1 Copyright (c) Steve Scherf et al.
# Submitted via: EasyCD 2.21
#
DISCID=9c096a0b
DTITLE=Desert Rose Band - Pages Of Life
DYEAR=1900
DGENRE=
TTITLE0=Story Of Love
TTITLE1=Start All Over Again
TTITLE2=Missing You
TTITLE3=Just A Memory
TTITLE4=God's Plan
TTITLE5=Darkness On The Playground
TTITLE6=Our Baby's Gone
TTITLE7=Time Passes Me By
TTITLE8=Everybody's Hero
TTITLE9=In Another Lifetime
TTITLE10=Desert Rose
EXTD=
EXTT0=
EXTT1=
EXTT2=
EXTT3=
EXTT4=
EXTT5=
EXTT6=
EXTT7=
EXTT8=
EXTT9=
EXTT10=
PLAYORDER=
